<?xml version="1.0" encoding="UTF-8"?>
<svg xmlns="http://www.w3.org/2000/svg" xmlns:xlink="http://www.w3.org/1999/xlink" width="50px" height="50px" viewBox="0 0 50 50" version="1.1">
<g id="surface1">
<path style="fill:none;stroke-width:12;stroke-linecap:round;stroke-linejoin:round;stroke:rgb(0%,0%,0%);stroke-opacity:1;stroke-miterlimit:4;" d="M 128 192 L 128 224 " transform="matrix(0.195312,0,0,0.195312,0,0)"/>
<path style=" stroke:none;fill-rule:nonzero;fill:rgb(0%,0%,0%);fill-opacity:1;" d="M 18.359375 27.34375 C 18.359375 28.421875 17.484375 29.296875 16.40625 29.296875 C 15.328125 29.296875 14.453125 28.421875 14.453125 27.34375 C 14.453125 26.265625 15.328125 25.390625 16.40625 25.390625 C 17.484375 25.390625 18.359375 26.265625 18.359375 27.34375 Z M 18.359375 27.34375 "/>
<path style=" stroke:none;fill-rule:nonzero;fill:rgb(0%,0%,0%);fill-opacity:1;" d="M 35.546875 27.34375 C 35.546875 28.421875 34.671875 29.296875 33.59375 29.296875 C 32.515625 29.296875 31.640625 28.421875 31.640625 27.34375 C 31.640625 26.265625 32.515625 25.390625 33.59375 25.390625 C 34.671875 25.390625 35.546875 26.265625 35.546875 27.34375 Z M 35.546875 27.34375 "/>
<path style="fill:none;stroke-width:12;stroke-linecap:round;stroke-linejoin:round;stroke:rgb(0%,0%,0%);stroke-opacity:1;stroke-miterlimit:4;" d="M 128 48 L 128 88 " transform="matrix(0.195312,0,0,0.195312,0,0)"/>
<path style="fill:none;stroke-width:12;stroke-linecap:round;stroke-linejoin:round;stroke:rgb(0%,0%,0%);stroke-opacity:1;stroke-miterlimit:4;" d="M 144 176 L 128 192 L 112 176 " transform="matrix(0.195312,0,0,0.195312,0,0)"/>
<path style="fill:none;stroke-width:12;stroke-linecap:round;stroke-linejoin:round;stroke:rgb(0%,0%,0%);stroke-opacity:1;stroke-miterlimit:4;" d="M 96 53 L 96 88 " transform="matrix(0.195312,0,0,0.195312,0,0)"/>
<path style="fill:none;stroke-width:12;stroke-linecap:round;stroke-linejoin:round;stroke:rgb(0%,0%,0%);stroke-opacity:1;stroke-miterlimit:4;" d="M 160 53 L 160 88 " transform="matrix(0.195312,0,0,0.195312,0,0)"/>
<path style="fill:none;stroke-width:12;stroke-linecap:round;stroke-linejoin:round;stroke:rgb(0%,0%,0%);stroke-opacity:1;stroke-miterlimit:4;" d="M 32 136 L 32 51.3 C 32 48.06 33.96 45.14 36.96 43.92 C 39.98 42.68 43.42 43.4 45.7 45.7 L 67.6 67.6 C 85.08 54.74 106.28 47.86 128 48 C 149.72 47.86 170.92 54.74 188.4 67.6 L 210.3 45.7 C 212.58 43.4 216.02 42.68 219.04 43.92 C 222.04 45.14 224 48.06 224 51.3 L 224 136 C 224 184.6 181 224 128 224 C 75 224 32 184.6 32 136 Z M 32 136 " transform="matrix(0.195312,0,0,0.195312,0,0)"/>
</g>
</svg>
