<?xml version="1.0" encoding="UTF-8"?>
<svg xmlns="http://www.w3.org/2000/svg" xmlns:xlink="http://www.w3.org/1999/xlink" width="56px" height="56px" viewBox="0 0 56 56" version="1.1">
<g id="surface1">
<path style="fill:none;stroke-width:12;stroke-linecap:round;stroke-linejoin:round;stroke:rgb(0%,0%,0%);stroke-opacity:1;stroke-miterlimit:4;" d="M 128 192 L 128 224 " transform="matrix(0.21875,0,0,0.21875,0,0)"/>
<path style=" stroke:none;fill-rule:nonzero;fill:rgb(0%,0%,0%);fill-opacity:1;" d="M 20.5625 30.625 C 20.5625 31.832031 19.582031 32.8125 18.375 32.8125 C 17.167969 32.8125 16.1875 31.832031 16.1875 30.625 C 16.1875 29.417969 17.167969 28.4375 18.375 28.4375 C 19.582031 28.4375 20.5625 29.417969 20.5625 30.625 Z M 20.5625 30.625 "/>
<path style=" stroke:none;fill-rule:nonzero;fill:rgb(0%,0%,0%);fill-opacity:1;" d="M 39.8125 30.625 C 39.8125 31.832031 38.832031 32.8125 37.625 32.8125 C 36.417969 32.8125 35.4375 31.832031 35.4375 30.625 C 35.4375 29.417969 36.417969 28.4375 37.625 28.4375 C 38.832031 28.4375 39.8125 29.417969 39.8125 30.625 Z M 39.8125 30.625 "/>
<path style="fill:none;stroke-width:12;stroke-linecap:round;stroke-linejoin:round;stroke:rgb(0%,0%,0%);stroke-opacity:1;stroke-miterlimit:4;" d="M 128 48 L 128 88 " transform="matrix(0.21875,0,0,0.21875,0,0)"/>
<path style="fill:none;stroke-width:12;stroke-linecap:round;stroke-linejoin:round;stroke:rgb(0%,0%,0%);stroke-opacity:1;stroke-miterlimit:4;" d="M 144 176 L 128 192 L 112 176 " transform="matrix(0.21875,0,0,0.21875,0,0)"/>
<path style="fill:none;stroke-width:12;stroke-linecap:round;stroke-linejoin:round;stroke:rgb(0%,0%,0%);stroke-opacity:1;stroke-miterlimit:4;" d="M 96 53 L 96 88 " transform="matrix(0.21875,0,0,0.21875,0,0)"/>
<path style="fill:none;stroke-width:12;stroke-linecap:round;stroke-linejoin:round;stroke:rgb(0%,0%,0%);stroke-opacity:1;stroke-miterlimit:4;" d="M 160 53 L 160 88 " transform="matrix(0.21875,0,0,0.21875,0,0)"/>
<path style="fill:none;stroke-width:12;stroke-linecap:round;stroke-linejoin:round;stroke:rgb(0%,0%,0%);stroke-opacity:1;stroke-miterlimit:4;" d="M 32 136 L 32 51.303571 C 32 48.053571 33.964286 45.142857 36.964286 43.910714 C 39.982143 42.678571 43.428571 43.392857 45.696429 45.696429 L 67.607143 67.607143 C 85.089286 54.732143 106.285714 47.857143 128 48 C 149.714286 47.857143 170.910714 54.732143 188.392857 67.607143 L 210.303571 45.696429 C 212.571429 43.392857 216.017857 42.678571 219.035714 43.910714 C 222.035714 45.142857 224 48.053571 224 51.303571 L 224 136 C 224 184.607143 181 224 128 224 C 75 224 32 184.607143 32 136 Z M 32 136 " transform="matrix(0.21875,0,0,0.21875,0,0)"/>
</g>
</svg>
