<?xml version="1.0" ?><svg viewBox="0 0 256 256" xmlns="http://www.w3.org/2000/svg"><rect fill="none" height="256" width="256"/><line fill="none" stroke="#000" stroke-linecap="round" stroke-linejoin="round" stroke-width="12" x1="128" x2="128" y1="192" y2="224"/><circle cx="84" cy="140" r="10"/><circle cx="172" cy="140" r="10"/><line fill="none" stroke="#000" stroke-linecap="round" stroke-linejoin="round" stroke-width="12" x1="128" x2="128" y1="48" y2="88"/><polyline fill="none" points="144 176 128 192 112 176" stroke="#000" stroke-linecap="round" stroke-linejoin="round" stroke-width="12"/><line fill="none" stroke="#000" stroke-linecap="round" stroke-linejoin="round" stroke-width="12" x1="96" x2="96" y1="53" y2="88"/><line fill="none" stroke="#000" stroke-linecap="round" stroke-linejoin="round" stroke-width="12" x1="160" x2="160" y1="53" y2="88"/><path d="M32,136V51.3a8,8,0,0,1,13.7-5.6L67.6,67.6h0A100.8,100.8,0,0,1,128,48a100.8,100.8,0,0,1,60.4,19.6h0l21.9-21.9A8,8,0,0,1,224,51.3V136c0,48.6-43,88-96,88S32,184.6,32,136Z" fill="none" stroke="#000" stroke-linecap="round" stroke-linejoin="round" stroke-width="12"/></svg>