<?xml version="1.0" encoding="UTF-8"?>
<svg xmlns="http://www.w3.org/2000/svg" xmlns:xlink="http://www.w3.org/1999/xlink" width="50px" height="50px" viewBox="0 0 50 50" version="1.1">
<g id="surface1">
<path style=" stroke:none;fill-rule:nonzero;fill:rgb(0%,0%,0%);fill-opacity:1;" d="M 21 18 L 23 18 L 23 20 L 21 20 Z M 21 18 "/>
<path style=" stroke:none;fill-rule:nonzero;fill:rgb(0%,0%,0%);fill-opacity:1;" d="M 25 18 L 27 18 L 27 20 L 25 20 Z M 25 18 "/>
<path style=" stroke:none;fill-rule:nonzero;fill:rgb(0%,0%,0%);fill-opacity:1;" d="M 29 18 L 31 18 L 31 20 L 29 20 Z M 29 18 "/>
<path style=" stroke:none;fill-rule:nonzero;fill:rgb(0%,0%,0%);fill-opacity:1;" d="M 33 18 L 35 18 L 35 20 L 33 20 Z M 33 18 "/>
<path style=" stroke:none;fill-rule:nonzero;fill:rgb(0%,0%,0%);fill-opacity:1;" d="M 21 22 L 23 22 L 23 24 L 21 24 Z M 21 22 "/>
<path style=" stroke:none;fill-rule:nonzero;fill:rgb(0%,0%,0%);fill-opacity:1;" d="M 25 22 L 27 22 L 27 24 L 25 24 Z M 25 22 "/>
<path style=" stroke:none;fill-rule:nonzero;fill:rgb(0%,0%,0%);fill-opacity:1;" d="M 29 22 L 31 22 L 31 24 L 29 24 Z M 29 22 "/>
<path style=" stroke:none;fill-rule:nonzero;fill:rgb(0%,0%,0%);fill-opacity:1;" d="M 33 22 L 35 22 L 35 24 L 33 24 Z M 33 22 "/>
<path style=" stroke:none;fill-rule:nonzero;fill:rgb(0%,0%,0%);fill-opacity:1;" d="M 21 26 L 23 26 L 23 28 L 21 28 Z M 21 26 "/>
<path style=" stroke:none;fill-rule:nonzero;fill:rgb(0%,0%,0%);fill-opacity:1;" d="M 25 26 L 27 26 L 27 28 L 25 28 Z M 25 26 "/>
<path style=" stroke:none;fill-rule:nonzero;fill:rgb(0%,0%,0%);fill-opacity:1;" d="M 29 26 L 31 26 L 31 28 L 29 28 Z M 29 26 "/>
<path style=" stroke:none;fill-rule:nonzero;fill:rgb(0%,0%,0%);fill-opacity:1;" d="M 33 26 L 35 26 L 35 28 L 33 28 Z M 33 26 "/>
<path style=" stroke:none;fill-rule:nonzero;fill:rgb(0%,0%,0%);fill-opacity:1;" d="M 21 30 L 23 30 L 23 32 L 21 32 Z M 21 30 "/>
<path style=" stroke:none;fill-rule:nonzero;fill:rgb(0%,0%,0%);fill-opacity:1;" d="M 25 30 L 27 30 L 27 32 L 25 32 Z M 25 30 "/>
<path style=" stroke:none;fill-rule:nonzero;fill:rgb(0%,0%,0%);fill-opacity:1;" d="M 29 30 L 31 30 L 31 32 L 29 32 Z M 29 30 "/>
<path style=" stroke:none;fill-rule:nonzero;fill:rgb(0%,0%,0%);fill-opacity:1;" d="M 33 30 L 35 30 L 35 32 L 33 32 Z M 33 30 "/>
<path style=" stroke:none;fill-rule:nonzero;fill:rgb(0%,0%,0%);fill-opacity:1;" d="M 5 24 L 7 24 L 7 26 L 5 26 Z M 5 24 "/>
<path style=" stroke:none;fill-rule:nonzero;fill:rgb(0%,0%,0%);fill-opacity:1;" d="M 9 24 L 11 24 L 11 26 L 9 26 Z M 9 24 "/>
<path style=" stroke:none;fill-rule:nonzero;fill:rgb(0%,0%,0%);fill-opacity:1;" d="M 13 24 L 15 24 L 15 26 L 13 26 Z M 13 24 "/>
<path style=" stroke:none;fill-rule:nonzero;fill:rgb(0%,0%,0%);fill-opacity:1;" d="M 5 28 L 7 28 L 7 30 L 5 30 Z M 5 28 "/>
<path style=" stroke:none;fill-rule:nonzero;fill:rgb(0%,0%,0%);fill-opacity:1;" d="M 9 28 L 11 28 L 11 30 L 9 30 Z M 9 28 "/>
<path style=" stroke:none;fill-rule:nonzero;fill:rgb(0%,0%,0%);fill-opacity:1;" d="M 13 28 L 15 28 L 15 30 L 13 30 Z M 13 28 "/>
<path style=" stroke:none;fill-rule:nonzero;fill:rgb(0%,0%,0%);fill-opacity:1;" d="M 5 32 L 7 32 L 7 34 L 5 34 Z M 5 32 "/>
<path style=" stroke:none;fill-rule:nonzero;fill:rgb(0%,0%,0%);fill-opacity:1;" d="M 9 32 L 11 32 L 11 34 L 9 34 Z M 9 32 "/>
<path style=" stroke:none;fill-rule:nonzero;fill:rgb(0%,0%,0%);fill-opacity:1;" d="M 13 32 L 15 32 L 15 34 L 13 34 Z M 13 32 "/>
<path style=" stroke:none;fill-rule:nonzero;fill:rgb(0%,0%,0%);fill-opacity:1;" d="M 5 36 L 7 36 L 7 38 L 5 38 Z M 5 36 "/>
<path style=" stroke:none;fill-rule:nonzero;fill:rgb(0%,0%,0%);fill-opacity:1;" d="M 9 36 L 11 36 L 11 38 L 9 38 Z M 9 36 "/>
<path style=" stroke:none;fill-rule:nonzero;fill:rgb(0%,0%,0%);fill-opacity:1;" d="M 13 36 L 15 36 L 15 38 L 13 38 Z M 13 36 "/>
<path style=" stroke:none;fill-rule:nonzero;fill:rgb(0%,0%,0%);fill-opacity:1;" d="M 41 22 L 45 22 L 45 24 L 41 24 Z M 41 22 "/>
<path style=" stroke:none;fill-rule:nonzero;fill:rgb(0%,0%,0%);fill-opacity:1;" d="M 41 18 L 45 18 L 45 20 L 41 20 Z M 41 18 "/>
<path style=" stroke:none;fill-rule:nonzero;fill:rgb(0%,0%,0%);fill-opacity:1;" d="M 41 26 L 45 26 L 45 28 L 41 28 Z M 41 26 "/>
<path style=" stroke:none;fill-rule:nonzero;fill:rgb(0%,0%,0%);fill-opacity:1;" d="M 41 30 L 45 30 L 45 32 L 41 32 Z M 41 30 "/>
<path style=" stroke:none;fill-rule:nonzero;fill:rgb(0%,0%,0%);fill-opacity:1;" d="M 41 34 L 45 34 L 45 36 L 41 36 Z M 41 34 "/>
<path style=" stroke:none;fill-rule:nonzero;fill:rgb(0%,0%,0%);fill-opacity:1;" d="M 41 38 L 45 38 L 45 40 L 41 40 Z M 41 38 "/>
<path style=" stroke:none;fill-rule:nonzero;fill:rgb(0%,0%,0%);fill-opacity:1;" d="M 41 42 L 45 42 L 45 44 L 41 44 Z M 41 42 "/>
<path style=" stroke:none;fill-rule:nonzero;fill:rgb(0%,0%,0%);fill-opacity:1;" d="M 46 9 L 44 9 L 44 12.980469 L 37 8.078125 L 37 14 L 34 14 L 34 7 L 29 7 L 29 1 L 27 1 L 27 7 L 22 7 L 22 14 L 17 14 L 17 20 L 5 20 L 5 18.414062 L 6.242188 17.171875 C 7.054688 17.710938 8.003906 18 9 18 C 10.335938 18 11.589844 17.480469 12.535156 16.535156 L 13.242188 15.828125 L 6.171875 8.757812 L 5.464844 9.464844 C 3.757812 11.171875 3.546875 13.816406 4.828125 15.757812 L 3 17.585938 L 3 20 L 1 20 L 1 49 L 49 49 L 49 16.480469 L 46 14.378906 Z M 6.292969 11.707031 L 10.292969 15.707031 C 9.191406 16.234375 7.765625 16.007812 6.878906 15.121094 C 5.957031 14.199219 5.761719 12.820312 6.292969 11.707031 Z M 24 9 L 32 9 L 32 14 L 24 14 Z M 17 47 L 3 47 L 3 22 L 17 22 Z M 26 47 L 26 40 L 30 40 L 30 47 Z M 37 47 L 32 47 L 32 38 L 24 38 L 24 47 L 19 47 L 19 16 L 37 16 Z M 47 47 L 39 47 L 39 11.921875 L 47 17.519531 Z M 47 47 "/>
</g>
</svg>
