<?xml version="1.0" encoding="UTF-8"?>
<svg xmlns="http://www.w3.org/2000/svg" xmlns:xlink="http://www.w3.org/1999/xlink" width="47px" height="56px" viewBox="0 0 47 55" version="1.1">
<g id="surface1">
<path style=" stroke:none;fill-rule:nonzero;fill:rgb(0%,0%,0%);fill-opacity:1;" d="M 35.675781 25.882812 C 36.46875 25.105469 37.113281 24.382812 37.851562 23.773438 C 38.742188 23.019531 39.6875 22.324219 40.675781 21.699219 C 41.949219 20.910156 42.976562 21.304688 43.351562 22.765625 C 43.867188 24.792969 44.285156 26.84375 44.691406 28.898438 C 45.460938 32.746094 45.648438 36.589844 44.359375 40.382812 C 42.039062 47.207031 37.347656 51.539062 30.273438 53.238281 C 27.609375 53.878906 24.914062 54.378906 22.195312 54.742188 C 8.558594 56.53125 1.050781 45.945312 0.214844 37.660156 C -0.410156 31.453125 1.554688 25.988281 4.984375 21.039062 C 7.230469 17.796875 10.054688 14.941406 12.597656 11.898438 C 14.144531 10.046875 15.71875 8.214844 17.152344 6.28125 C 18.28125 4.765625 18.792969 2.960938 19.117188 1.101562 C 19.195312 0.671875 19.429688 0.28125 19.78125 0.015625 C 19.945312 -0.0859375 20.464844 0.324219 20.800781 0.535156 C 21.367188 0.882812 21.914062 1.257812 22.46875 1.617188 C 28.765625 5.671875 32.554688 11.464844 34.363281 18.578125 C 34.894531 20.675781 35.148438 22.839844 35.53125 24.972656 C 35.574219 25.222656 35.609375 25.476562 35.675781 25.882812 Z M 20.851562 2.867188 C 20.261719 6.128906 18.679688 8.742188 16.695312 11.136719 C 14.78125 13.445312 12.820312 15.714844 10.867188 17.996094 C 7.773438 21.609375 5.335938 25.558594 3.90625 30.132812 C 0.722656 40.300781 7.4375 53.015625 20.96875 52.152344 C 24.628906 51.917969 28.277344 51.890625 31.714844 50.191406 C 37.242188 47.460938 40.980469 43.410156 42.285156 37.34375 C 43.230469 32.945312 41.902344 28.769531 41.066406 24.371094 C 38.792969 26.140625 37.082031 28.097656 36.085938 30.617188 C 35.886719 31.125 35.714844 31.640625 35.476562 32.128906 C 35.171875 32.742188 34.65625 33.09375 33.949219 32.949219 C 33.164062 32.789062 32.875 32.210938 32.902344 31.476562 C 32.933594 30.703125 33.015625 29.929688 33.058594 29.15625 C 33.4375 22.308594 31.933594 15.910156 28.269531 10.0625 C 26.433594 7.09375 23.886719 4.625 20.851562 2.867188 Z M 20.851562 2.867188 "/>
<path style=" stroke:none;fill-rule:nonzero;fill:rgb(0%,0%,0%);fill-opacity:1;" d="M 44.125 2.644531 C 44.402344 3.472656 44.675781 4.300781 44.960938 5.125 C 45.558594 6.839844 46.351562 8.507812 46.722656 10.265625 C 47.488281 13.875 45.574219 16.714844 41.992188 17.648438 C 40.78125 17.964844 39.9375 17.515625 39.480469 16.375 C 39.28125 15.878906 39.027344 15.410156 38.722656 14.972656 C 36.773438 12.160156 36.308594 9.25 37.925781 6.109375 C 38.976562 4.066406 40.523438 2.429688 42.144531 0.855469 C 42.441406 0.566406 43.125 0.375 43.484375 0.511719 C 43.851562 0.652344 44.101562 1.226562 44.292969 1.65625 C 44.40625 1.917969 44.3125 2.269531 44.3125 2.578125 Z M 41.839844 4.414062 C 39.148438 7.027344 37.5625 11.140625 41.089844 14.886719 C 43.289062 14.234375 44.140625 12.964844 43.953125 10.761719 C 43.757812 8.476562 42.714844 6.484375 41.839844 4.414062 Z M 41.839844 4.414062 "/>
<path style=" stroke:none;fill-rule:nonzero;fill:rgb(0%,0%,0%);fill-opacity:1;" d="M 24.925781 33.476562 C 25.523438 32.074219 26.074219 30.800781 26.609375 29.519531 C 26.894531 28.839844 27.261719 28.257812 28.101562 28.238281 C 28.875 28.222656 29.308594 28.714844 29.640625 29.320312 C 31.28125 32.28125 32.847656 35.277344 33.550781 38.613281 C 34.738281 44.222656 31.222656 49.542969 25.609375 50.882812 C 21.746094 51.804688 18.097656 51.191406 14.667969 49.445312 C 10.75 47.453125 9.003906 43.945312 8.75 39.761719 C 8.269531 31.753906 13.621094 23.660156 21.195312 20.675781 C 21.773438 20.445312 22.332031 20.117188 22.933594 19.988281 C 23.421875 19.882812 24.136719 19.808594 24.429688 20.074219 C 24.613281 20.28125 24.753906 20.523438 24.835938 20.785156 C 24.921875 21.046875 24.949219 21.324219 24.917969 21.597656 C 24.773438 22.585938 24.378906 23.535156 24.117188 24.507812 C 23.183594 27.972656 23.402344 30.605469 24.925781 33.476562 Z M 21.566406 22.976562 C 21.375 23.046875 21.183594 23.128906 20.996094 23.21875 C 15.042969 26.425781 12.117188 31.640625 11.484375 38.074219 C 10.933594 43.644531 14.484375 47.90625 20.046875 48.996094 C 20.3125 49.0625 20.589844 49.070312 20.859375 49.015625 C 22.621094 48.507812 24.410156 48.066406 26.121094 47.421875 C 29.402344 46.175781 31.230469 42.933594 30.730469 39.507812 C 30.347656 36.90625 29.261719 34.550781 28.117188 32.21875 C 28.09375 32.171875 27.988281 32.164062 27.703125 32.0625 C 27.304688 33.398438 26.863281 34.710938 26.53125 36.046875 C 26.242188 37.207031 25.132812 37.6875 24.152344 36.980469 C 23.929688 36.820312 23.738281 36.625 23.585938 36.398438 C 22.078125 34.171875 20.980469 31.757812 20.988281 29.054688 C 20.996094 27.0625 21.355469 25.074219 21.566406 22.976562 Z M 21.566406 22.976562 "/>
</g>
</svg>
