<?xml version="1.0" encoding="UTF-8"?>
<svg xmlns="http://www.w3.org/2000/svg" xmlns:xlink="http://www.w3.org/1999/xlink" width="50px" height="50px" viewBox="0 0 50 50" version="1.1">
<g id="surface1">
<path style=" stroke:none;fill-rule:nonzero;fill:rgb(0%,0%,0%);fill-opacity:1;" d="M 46.875 37.589844 L 34.644531 1.25 C 34.554688 0.894531 34.105469 0.625 33.75 0.625 C 33.394531 0.625 32.945312 0.894531 32.855469 1.25 L 27.054688 18.480469 C 24.554688 15.535156 20.804688 13.660156 16.695312 13.660156 C 9.195312 13.660156 3.125 19.730469 3.125 27.230469 C 3.125 34.375 8.660156 40.269531 15.714844 40.804688 L 15.714844 48.570312 C 15.714844 49.105469 16.160156 49.554688 16.695312 49.554688 C 17.230469 49.554688 17.679688 49.105469 17.679688 48.570312 L 17.679688 40.804688 C 19.820312 40.625 21.875 40 23.660156 38.929688 L 33.214844 38.929688 L 33.214844 48.660156 C 33.214844 49.195312 33.660156 49.644531 34.195312 49.644531 C 34.730469 49.644531 35.179688 49.195312 35.179688 48.660156 L 35.179688 38.929688 L 46.160156 38.929688 C 46.429688 38.929688 46.785156 38.75 46.964844 38.480469 C 46.964844 38.125 47.054688 37.855469 46.875 37.589844 Z M 17.589844 35.355469 L 20.179688 32.769531 C 20.535156 32.410156 20.535156 31.785156 20.179688 31.429688 C 19.820312 31.070312 19.195312 31.070312 18.839844 31.429688 L 16.605469 33.660156 L 14.375 31.429688 C 14.019531 31.070312 13.394531 31.070312 13.035156 31.429688 C 12.679688 31.785156 12.679688 32.410156 13.035156 32.769531 L 15.625 35.355469 L 15.625 38.75 C 9.644531 38.214844 4.910156 33.214844 4.910156 27.144531 C 4.910156 20.714844 10.089844 15.535156 16.519531 15.535156 C 20.714844 15.535156 24.464844 17.769531 26.519531 21.160156 C 26.875 21.785156 27.144531 22.410156 27.410156 23.035156 C 27.410156 23.125 27.5 23.304688 27.5 23.394531 C 27.589844 23.570312 27.589844 23.75 27.679688 23.929688 C 27.769531 24.105469 27.769531 24.375 27.855469 24.644531 C 27.855469 24.820312 27.945312 25 27.945312 25.179688 C 27.945312 25.445312 28.035156 25.625 28.035156 25.894531 C 28.035156 25.980469 28.035156 26.070312 28.035156 26.25 C 28.035156 26.605469 28.125 26.964844 28.125 27.320312 C 28.125 27.769531 28.125 28.214844 28.035156 28.660156 C 28.035156 28.839844 28.035156 28.929688 27.945312 29.105469 C 27.855469 29.375 27.855469 29.730469 27.769531 30 C 27.769531 30.179688 27.679688 30.355469 27.679688 30.445312 C 27.589844 30.714844 27.5 30.980469 27.410156 31.25 C 27.320312 31.429688 27.320312 31.519531 27.230469 31.695312 C 27.054688 32.054688 26.875 32.5 26.695312 32.855469 C 26.605469 32.945312 26.519531 33.035156 26.519531 33.214844 C 26.339844 33.480469 26.160156 33.75 25.980469 34.019531 C 25.894531 34.105469 25.804688 34.285156 25.714844 34.375 C 25.535156 34.644531 25.355469 34.820312 25.089844 35.089844 C 25 35.179688 24.910156 35.269531 24.820312 35.355469 C 24.195312 35.980469 23.480469 36.605469 22.679688 37.144531 C 21.160156 38.125 19.375 38.75 17.410156 38.929688 Z M 35 36.875 L 35 35.355469 L 37.589844 32.769531 C 37.945312 32.410156 37.945312 31.785156 37.589844 31.429688 C 37.230469 31.070312 36.605469 31.070312 36.25 31.429688 L 34.019531 33.660156 L 31.785156 31.429688 C 31.429688 31.070312 30.804688 31.070312 30.445312 31.429688 C 30.089844 31.785156 30.089844 32.410156 30.445312 32.769531 L 33.035156 35.355469 L 33.035156 36.875 L 26.070312 36.875 C 26.25 36.695312 26.429688 36.519531 26.519531 36.339844 C 26.695312 36.160156 26.785156 35.980469 26.964844 35.804688 C 27.054688 35.714844 27.054688 35.625 27.144531 35.625 C 28.75 33.660156 29.730469 31.25 30 28.660156 C 30 28.660156 30 28.570312 30 28.570312 C 30.089844 28.125 30.089844 27.679688 30.089844 27.144531 C 30.089844 26.695312 30.089844 26.339844 30 25.894531 C 30 25.804688 30 25.625 30 25.535156 C 30 25.179688 29.910156 24.820312 29.820312 24.464844 C 29.820312 24.375 29.730469 24.195312 29.730469 24.105469 C 29.644531 23.839844 29.644531 23.660156 29.554688 23.394531 C 29.464844 23.214844 29.464844 23.035156 29.375 22.855469 C 29.285156 22.679688 29.195312 22.5 29.195312 22.230469 C 29.105469 21.964844 28.929688 21.605469 28.839844 21.339844 C 28.75 21.25 28.75 21.070312 28.660156 20.980469 C 28.570312 20.804688 28.480469 20.625 28.304688 20.355469 C 28.304688 20.355469 28.304688 20.355469 28.304688 20.269531 L 33.660156 4.375 L 44.554688 36.785156 Z M 35 36.875 "/>
</g>
</svg>
