<?xml version="1.0" encoding="UTF-8"?>
<svg xmlns="http://www.w3.org/2000/svg" xmlns:xlink="http://www.w3.org/1999/xlink" width="50px" height="50px" viewBox="0 0 50 50" version="1.1">
<g id="surface1">
<path style=" stroke:none;fill-rule:nonzero;fill:rgb(0%,0%,0%);fill-opacity:1;" d="M 44.816406 35.910156 C 43.273438 36.273438 41.636719 36.546875 40 36.546875 C 31.183594 36.546875 23.453125 30.636719 21.089844 22.089844 C 19.273438 15.453125 21 8.546875 25.726562 3.546875 L 27.273438 1.910156 L 25 2 C 23.273438 2.089844 21.546875 2.363281 19.910156 2.816406 C 7.546875 6.183594 0.273438 18.910156 3.636719 31.273438 C 6.363281 41.363281 15.546875 48.363281 26 48.363281 C 28 48.363281 30.089844 48.089844 32.089844 47.546875 C 37.816406 46 42.636719 42.363281 45.726562 37.363281 L 46.910156 35.453125 Z M 31.726562 45.636719 C 29.910156 46.089844 28 46.363281 26.089844 46.363281 C 16.453125 46.363281 8 39.910156 5.453125 30.636719 C 2.363281 19.273438 9.089844 7.546875 20.453125 4.453125 C 21.273438 4.273438 22.089844 4.089844 23 3.910156 C 19 9.183594 17.636719 16 19.363281 22.453125 C 21.910156 31.726562 30.363281 38.273438 40 38.273438 C 41 38.273438 42 38.183594 43 38.089844 C 40.183594 41.816406 36.273438 44.453125 31.726562 45.636719 Z M 27.089844 13.546875 L 31.546875 12.273438 L 32.910156 7.816406 L 34.183594 12.273438 L 38.636719 13.636719 L 34.183594 14.910156 L 32.816406 19.363281 L 31.546875 14.910156 Z M 36.726562 21.183594 L 39.816406 20.183594 L 40.636719 17 L 41.636719 20.089844 L 44.816406 20.910156 L 41.726562 21.910156 L 40.910156 25.089844 L 39.910156 22 Z M 36.726562 21.183594 "/>
</g>
</svg>
