<?xml version="1.0" encoding="UTF-8"?>
<svg xmlns="http://www.w3.org/2000/svg" xmlns:xlink="http://www.w3.org/1999/xlink" width="50px" height="50px" viewBox="0 0 50 50" version="1.1">
<g id="surface1">
<path style=" stroke:none;fill-rule:nonzero;fill:rgb(0%,0%,0%);fill-opacity:1;" d="M 41.546875 40.363281 C 41.546875 41.570312 40.570312 42.546875 39.363281 42.546875 C 38.160156 42.546875 37.183594 41.570312 37.183594 40.363281 C 37.183594 39.160156 38.160156 38.183594 39.363281 38.183594 C 40.570312 38.183594 41.546875 39.160156 41.546875 40.363281 Z M 41.546875 40.363281 "/>
<path style=" stroke:none;fill-rule:nonzero;fill:rgb(0%,0%,0%);fill-opacity:1;" d="M 32 40.363281 C 32 41.570312 31.023438 42.546875 29.816406 42.546875 C 28.613281 42.546875 27.636719 41.570312 27.636719 40.363281 C 27.636719 39.160156 28.613281 38.183594 29.816406 38.183594 C 31.023438 38.183594 32 39.160156 32 40.363281 Z M 32 40.363281 "/>
<path style=" stroke:none;fill-rule:nonzero;fill:rgb(0%,0%,0%);fill-opacity:1;" d="M 22.453125 40.363281 C 22.453125 41.570312 21.476562 42.546875 20.273438 42.546875 C 19.066406 42.546875 18.089844 41.570312 18.089844 40.363281 C 18.089844 39.160156 19.066406 38.183594 20.273438 38.183594 C 21.476562 38.183594 22.453125 39.160156 22.453125 40.363281 Z M 22.453125 40.363281 "/>
<path style=" stroke:none;fill-rule:nonzero;fill:rgb(0%,0%,0%);fill-opacity:1;" d="M 12.910156 40.363281 C 12.910156 41.570312 11.933594 42.546875 10.726562 42.546875 C 9.523438 42.546875 8.546875 41.570312 8.546875 40.363281 C 8.546875 39.160156 9.523438 38.183594 10.726562 38.183594 C 11.933594 38.183594 12.910156 39.160156 12.910156 40.363281 Z M 12.910156 40.363281 "/>
<path style=" stroke:none;fill-rule:nonzero;fill:rgb(0%,0%,0%);fill-opacity:1;" d="M 36.816406 46.363281 C 36.816406 47.570312 35.839844 48.546875 34.636719 48.546875 C 33.429688 48.546875 32.453125 47.570312 32.453125 46.363281 C 32.453125 45.160156 33.429688 44.183594 34.636719 44.183594 C 35.839844 44.183594 36.816406 45.160156 36.816406 46.363281 Z M 36.816406 46.363281 "/>
<path style=" stroke:none;fill-rule:nonzero;fill:rgb(0%,0%,0%);fill-opacity:1;" d="M 27.183594 46.363281 C 27.183594 47.570312 26.203125 48.546875 25 48.546875 C 23.796875 48.546875 22.816406 47.570312 22.816406 46.363281 C 22.816406 45.160156 23.796875 44.183594 25 44.183594 C 26.203125 44.183594 27.183594 45.160156 27.183594 46.363281 Z M 27.183594 46.363281 "/>
<path style=" stroke:none;fill-rule:nonzero;fill:rgb(0%,0%,0%);fill-opacity:1;" d="M 17.636719 46.363281 C 17.636719 47.570312 16.660156 48.546875 15.453125 48.546875 C 14.25 48.546875 13.273438 47.570312 13.273438 46.363281 C 13.273438 45.160156 14.25 44.183594 15.453125 44.183594 C 16.660156 44.183594 17.636719 45.160156 17.636719 46.363281 Z M 17.636719 46.363281 "/>
<path style=" stroke:none;fill-rule:nonzero;fill:rgb(0%,0%,0%);fill-opacity:1;" d="M 36.453125 9.546875 C 36.183594 9.546875 36 9.546875 35.726562 9.546875 C 33.726562 4.726562 28.816406 1.453125 23.453125 1.453125 C 16.089844 1.453125 10.089844 7.273438 10.089844 14.546875 C 10.089844 14.546875 10.089844 14.636719 10.089844 14.636719 C 5.183594 15 1.273438 19.089844 1.273438 24 C 1.273438 29.183594 5.546875 33.363281 10.816406 33.363281 L 36.453125 33.363281 C 43.183594 33.363281 48.636719 28 48.636719 21.453125 C 48.636719 14.910156 43.183594 9.546875 36.453125 9.546875 Z M 36.453125 30.273438 L 10.816406 30.273438 C 7.273438 30.273438 4.363281 27.453125 4.363281 24 C 4.363281 20.546875 7.273438 17.726562 10.816406 17.726562 C 11 17.726562 11.273438 17.726562 11.546875 17.816406 C 12 17.910156 12.546875 17.726562 12.816406 17.363281 C 13.183594 17 13.273438 16.546875 13.273438 16.089844 C 13.183594 15.636719 13.183594 15.089844 13.183594 14.636719 C 13.183594 9.183594 17.726562 4.726562 23.363281 4.726562 C 27.816406 4.726562 31.910156 7.636719 33.183594 11.816406 C 33.453125 12.546875 34.183594 13 34.910156 12.910156 C 35.453125 12.816406 35.910156 12.816406 36.453125 12.816406 C 41.453125 12.816406 45.453125 16.726562 45.453125 21.636719 C 45.546875 26.363281 41.453125 30.273438 36.453125 30.273438 Z M 36.453125 30.273438 "/>
</g>
</svg>
