<?xml version="1.0" encoding="UTF-8"?>
<svg xmlns="http://www.w3.org/2000/svg" xmlns:xlink="http://www.w3.org/1999/xlink" width="50px" height="50px" viewBox="0 0 50 50" version="1.1">
<g id="surface1">
<path style=" stroke:none;fill-rule:nonzero;fill:rgb(12.941176%,12.941176%,12.941176%);fill-opacity:1;" d="M 17.5 22.5 C 17.5 14.214844 24.214844 7.5 32.5 7.5 L 33.75 7.5 C 34.441406 7.5 35 6.941406 35 6.25 C 35 5.558594 34.441406 5 33.75 5 L 32.5 5 C 22.835938 5 15 12.835938 15 22.5 L 15 25 C 15 26.378906 13.878906 27.5 12.5 27.5 L 6.25 27.5 C 5.558594 27.5 5 28.058594 5 28.75 C 5 29.441406 5.558594 30 6.25 30 L 12.5 30 C 15.261719 30 17.5 27.761719 17.5 25 Z M 33.75 15 C 28.917969 15 25 18.917969 25 23.75 L 25 26.25 C 25 32.464844 19.964844 37.5 13.75 37.5 L 6.25 37.5 C 5.558594 37.5 5 36.941406 5 36.25 C 5 35.558594 5.558594 35 6.25 35 L 13.75 35 C 18.582031 35 22.5 31.082031 22.5 26.25 L 22.5 23.75 C 22.5 17.535156 27.535156 12.5 33.75 12.5 L 43.75 12.5 C 44.441406 12.5 45 13.058594 45 13.75 C 45 14.441406 44.441406 15 43.75 15 Z M 35 22.5 C 33.621094 22.5 32.5 23.621094 32.5 25 L 32.5 27.5 C 32.5 37.164062 24.664062 45 15 45 L 13.75 45 C 13.058594 45 12.5 44.441406 12.5 43.75 C 12.5 43.058594 13.058594 42.5 13.75 42.5 L 15 42.5 C 23.285156 42.5 30 35.785156 30 27.5 L 30 25 C 30 22.238281 32.238281 20 35 20 L 43.75 20 C 44.441406 20 45 20.558594 45 21.25 C 45 21.941406 44.441406 22.5 43.75 22.5 Z M 35 22.5 "/>
</g>
</svg>
