<?xml version="1.0" encoding="UTF-8"?>
<svg xmlns="http://www.w3.org/2000/svg" xmlns:xlink="http://www.w3.org/1999/xlink" width="50px" height="36px" viewBox="0 0 49 36" version="1.1">
<g id="surface1">
<path style=" stroke:none;fill-rule:nonzero;fill:rgb(0%,0%,0%);fill-opacity:1;" d="M 49 8.011719 C 48.734375 8.371094 48.289062 8.460938 47.929688 8.28125 C 40.714844 3.511719 31.894531 3.511719 24.945312 8.28125 C 20.847656 11.160156 16.75 12.511719 12.652344 12.511719 C 8.550781 12.511719 4.453125 11.070312 0.265625 8.28125 C -0.0898438 8.011719 -0.179688 7.558594 0.0898438 7.199219 C 0.355469 6.839844 0.800781 6.75 1.15625 7.019531 C 8.910156 12.328125 16.394531 12.328125 24.144531 7.019531 C 31.628906 1.890625 41.070312 1.890625 48.820312 7.019531 C 49.089844 7.199219 49.179688 7.648438 49 8.011719 Z M 49 8.011719 "/>
<path style=" stroke:none;fill-rule:nonzero;fill:rgb(0%,0%,0%);fill-opacity:1;" d="M 48.734375 17.730469 C 40.980469 12.601562 31.539062 12.601562 24.054688 17.730469 C 16.304688 23.039062 8.820312 23.039062 1.070312 17.730469 C 0.710938 17.460938 0.265625 17.550781 0 17.910156 C -0.265625 18.269531 -0.179688 18.71875 0.179688 18.988281 C 4.367188 21.871094 8.464844 23.21875 12.5625 23.21875 C 16.660156 23.21875 20.757812 21.78125 24.855469 18.988281 C 31.804688 14.21875 40.625 14.21875 47.84375 18.988281 C 48.199219 19.261719 48.644531 19.171875 48.910156 18.71875 C 49.179688 18.449219 49.089844 18 48.734375 17.730469 Z M 48.734375 17.730469 "/>
<path style=" stroke:none;fill-rule:nonzero;fill:rgb(0%,0%,0%);fill-opacity:1;" d="M 48.734375 28.621094 C 40.980469 23.488281 31.539062 23.488281 24.054688 28.621094 C 16.304688 33.929688 8.820312 33.929688 1.070312 28.621094 C 0.710938 28.351562 0.265625 28.441406 0 28.800781 C -0.265625 29.160156 -0.179688 29.609375 0.179688 29.878906 C 4.367188 32.761719 8.464844 34.109375 12.5625 34.109375 C 16.660156 34.109375 20.757812 32.671875 24.855469 29.878906 C 31.804688 25.109375 40.625 25.109375 47.84375 29.878906 C 48.199219 30.148438 48.644531 30.058594 48.910156 29.609375 C 49.179688 29.339844 49.089844 28.800781 48.734375 28.621094 Z M 48.734375 28.621094 "/>
</g>
</svg>
