<?xml version="1.0" ?><svg data-name="Layer 1" id="Layer_1" viewBox="0 0 150 150" xmlns="http://www.w3.org/2000/svg" xmlns:xlink="http://www.w3.org/1999/xlink"><defs><style>.cls-1{fill:#5fb2d9;}.cls-2{clip-path:url(#clip-path);}.cls-3{fill:#828178;}.cls-4{fill:#fff;}.cls-5{fill:#fafa05;}</style><clipPath id="clip-path"><circle class="cls-1" cx="75" cy="75" r="65"/></clipPath></defs><title/><circle class="cls-1" cx="75" cy="75" r="65"/><g class="cls-2"><path class="cls-3" d="M86.19,172.36S16.91,128.8,12.55,111.8H153.3Z"/></g><path class="cls-4" d="M122.75,85.6V81.24h-58V85.6h3.5v4.32h-3.5v4.36h3.5v3.89h-3.5v4.36h3.5V112h4.36v-9.45h42.93V112h4.36v-9.45h2.85V98.17H119.9V94.28h2.85V89.92H119.9V85.6h2.85Zm-50.14,0h19v4.32h-19V85.6Zm0,8.67h19v3.89h-19V94.28Zm42.93,3.89H95.94V94.28h19.61v3.89Zm0-8.25H95.94V85.6h19.61v4.32Z"/><path class="cls-4" d="M66.89,51.57A11.25,11.25,0,0,0,52.32,41.12a14.19,14.19,0,0,0-23.4,9.32,14.19,14.19,0,0,0,6,26.84A14.17,14.17,0,0,0,44,82.71v29h4.46v-29a14.18,14.18,0,0,0,9.09-5.46c0.36,0,.71.05,1.07,0.05A14.19,14.19,0,0,0,66.89,51.57Z"/><circle class="cls-5" cx="98.23" cy="38.11" r="5.48"/><path class="cls-4" d="M98.23,48.72a0.42,0.42,0,0,1-.42-0.42V44.92a0.42,0.42,0,0,1,.83,0V48.3A0.42,0.42,0,0,1,98.23,48.72Z"/><path class="cls-5" d="M98.23,31.55a0.42,0.42,0,0,1-.42-0.42V27.91a0.42,0.42,0,0,1,.83,0v3.22A0.42,0.42,0,0,1,98.23,31.55Z"/><path class="cls-5" d="M91.42,38.52H88a0.42,0.42,0,1,1,0-.83h3.38A0.42,0.42,0,1,1,91.42,38.52Z"/><path class="cls-4" d="M108.43,38.52h-3.22a0.42,0.42,0,1,1,0-.83h3.22A0.42,0.42,0,0,1,108.43,38.52Z"/><line class="cls-1" x1="93.41" x2="91.02" y1="42.93" y2="45.32"/><path class="cls-4" d="M91,45.73A0.42,0.42,0,0,1,90.73,45l2.39-2.39a0.42,0.42,0,0,1,.59.59l-2.39,2.39A0.41,0.41,0,0,1,91,45.73Z"/><path class="cls-5" d="M103.16,33.59a0.42,0.42,0,0,1-.29-0.71l2.28-2.28a0.42,0.42,0,1,1,.59.59l-2.28,2.28A0.42,0.42,0,0,1,103.16,33.59Z"/><path class="cls-5" d="M93.41,33.7a0.41,0.41,0,0,1-.29-0.12l-2.39-2.39a0.42,0.42,0,0,1,.59-0.59L93.71,33A0.42,0.42,0,0,1,93.41,33.7Z"/><line class="cls-1" x1="105.45" x2="103.16" y1="45.32" y2="43.04"/><path class="cls-4" d="M105.45,45.73a0.41,0.41,0,0,1-.29-0.12l-2.28-2.28a0.42,0.42,0,0,1,.59-0.59L105.74,45A0.42,0.42,0,0,1,105.45,45.73Z"/><path class="cls-4" d="M114.13,42.62H113v0a5.73,5.73,0,0,0-11.46-.2,5.72,5.72,0,0,0-8.26.25h-2.2a5.69,5.69,0,0,0,0,11.37h1.6a5.72,5.72,0,0,0,8.29,1.52,5.73,5.73,0,0,0,11.28-1.42V54h1.9A5.69,5.69,0,0,0,114.13,42.62Z"/></svg>